<?xml version="1.0" encoding="UTF-8" standalone="no"?>
<!-- Generator: Adobe Illustrator 22.1.0, SVG Export Plug-In . SVG Version: 6.00 Build 0)  -->

<svg
   version="1.1"
   id="Layer_1"
   x="0px"
   y="0px"
   viewBox="0 0 3810.2168 2606.7107"
   xml:space="preserve"
   width="3810.2168"
   height="2606.7107"
   xmlns="http://www.w3.org/2000/svg"
   xmlns:svg="http://www.w3.org/2000/svg"><defs
   id="defs433" />
<style
   type="text/css"
   id="style1">
	.st0{fill:#CCCCCE;}
	.st1{opacity:0.42;fill:#B8B8BA;}
	.st2{fill:#44443F;}
	.st3{fill:#575757;}
	.st4{fill:#F2F2F2;}
	.st5{fill:#F5F5F5;}
	.st6{fill:#FAFAFA;}
	.st7{fill:#C5C2BD;}
	.st8{fill:#A29F98;}
	.st9{opacity:0.75;fill:#A29F98;}
	.st10{fill:#E1E1E3;}
	.st11{fill:#D7E0E3;}
	.st12{opacity:0.64;fill:#F2F2F2;}
	.st13{opacity:0.21;fill:#1A1A1A;}
	.st14{fill:#333333;}
	.st15{fill:#2E2E2E;}
	.st16{fill:#3B3B3B;}
	.st17{fill:#424242;}
	.st18{fill:#262626;}
	.st19{fill:#1A1A1A;}
	.st20{fill:#AEAEB0;}
	.st21{fill:#2E2E2B;}
	.st22{opacity:0.17;fill:#B8B8BA;}
	.st23{fill:#363D3F;}
	.st24{fill:#2C3233;}
	.st25{fill:#29282F;}
	.st26{fill:#1B1B1F;}
	.st27{fill:#26262B;}
	.st28{fill:#33332F;}
	.st29{fill:#262623;}
	.st30{fill:#212126;}
	.st31{fill:#33323B;}
	.st32{fill:#171717;}
	.st33{fill:#0E0E0F;}
	.st34{opacity:0.3;}
	.st35{fill:#101010;}
	.st36{fill:#141414;}
	.st37{opacity:0.38;fill:#44443F;}
	.st38{fill:#0A0A0A;}
	.st39{fill:#1C1C1C;}
	.st40{fill:#1D1D21;}
	.st41{fill:#56584C;}
	.st42{fill:#717363;}
	.st43{fill:#46473E;}
	.st44{fill:#44453C;}
	.st45{fill:#303224;}
	.st46{fill:#1D1F16;}
	.st47{fill:#4F5049;}
	.st48{fill:#606158;}
	.st49{fill:#494A40;}
	.st50{opacity:0.25;}
	.st51{fill:#C29439;}
	.st52{fill:#AD8433;}
	.st53{fill:#CC9B3C;}
	.st54{fill:#DBA740;}
	.st55{fill:#A17A2F;}
	.st56{fill:#353828;}
	.st57{fill:#282B1F;}
	.st58{opacity:0.23;}
	.st59{fill:#684B0E;}
	.st60{fill:#523B0B;}
	.st61{fill:#424531;}
	.st62{fill:#737373;}
	.st63{fill:#595959;}
	.st64{fill:#666666;}
	.st65{fill:#808080;}
	.st66{fill:#404040;}
	.st67{fill:#474747;}
	.st68{fill:#545454;}
	.st69{fill:#A65E30;}
	.st70{fill:#AB6131;}
	.st71{fill:#B36633;}
	.st72{fill:#94542A;}
	.st73{fill:#854B26;}
	.st74{fill:#9B5E3C;}
	.st75{fill:#7A4925;}
	.st76{fill:#663D1F;}
	.st77{fill:#54321A;}
	.st78{fill:#422815;}
	.st79{fill:#BF734A;}
	.st80{fill:none;stroke:#595959;stroke-width:8.5171;stroke-miterlimit:10;}
	.st81{fill:none;stroke:#663D1F;stroke-width:8.5171;stroke-miterlimit:10;}
	.st82{fill:none;stroke:#000000;stroke-width:5.9058;stroke-miterlimit:10;}
	.st83{fill:none;stroke:#000000;stroke-width:4.2586;stroke-miterlimit:10;}
</style>
<g
   id="g434"
   transform="matrix(7.5930984,0,0,7.5930984,-3786.6782,-19876.454)"
   style="fill:#f2cccc;fill-opacity:1">
				<path
   d="m 630.2,2919.8 c 0,-4.6 0.1,-9.1 0.4,-13.6 1.6,-27.6 8.2,-54.8 19.3,-80.1 l 5.3,-12.1 H 768 c 20.7,0 37.4,-16.7 37.4,-37.4 v -43.9 l -5,0.2 176.3,-7.7 7.4,-13.9 2.6,-4.8 6.8,-12.8 v -5.7 0 0 l 2.5,-0.6 c 0.5,-0.1 0.8,-0.3 1.2,-0.5 0.2,-0.1 0.4,-0.1 0.6,-0.2 1.6,-1 2.7,-2.8 2.7,-4.9 v -40.9 c 0,-1.3 -0.4,-2.5 -1.2,-3.5 -0.5,-0.7 -1.2,-1.2 -2,-1.6 -0.3,-0.2 -0.6,-0.4 -1,-0.5 l -0.7,-0.2 -2.1,-0.6 v -3.2 h -7.2 v -13.6 h -10 l -4.4,6 v 0 l -5.6,7.6 H 819.2 781.8 v 4.8 h -49.5 v -4.8 H 583.2 c -2,0 -3.9,0.5 -5.6,1.4 l -32.7,17.8 v 0 l 6.9,-3.7 c 0,-10.9 -9.8,-13.3 -17,-11.6 -0.1,0 -0.2,0 -0.3,0.1 -0.2,0 -0.3,0.1 -0.5,0.2 -0.4,0.1 -0.8,0.2 -1.2,0.4 -0.1,0 -0.2,0.1 -0.3,0.1 -0.4,0.2 -0.9,0.4 -1.3,0.6 -0.4,0.2 -0.8,0.5 -1.2,0.7 -0.1,0 -0.1,0.1 -0.2,0.1 -0.4,0.3 -0.8,0.6 -1.2,1 -0.9,0.9 -1.6,1.8 -2.2,2.9 0,0.1 -0.1,0.1 -0.1,0.2 0,0 0,0 0,0 -3.2,5.3 -2.8,12.2 5,16.7 -1.3,0.7 -2.2,1.2 -2.2,1.2 -3.8,2 -6.1,6 -6.1,10.3 v 34 1.4 3.5 12.7 c 0,3.3 1,6.5 2.8,9.2 l 5.7,8.5 c 14.4,21.5 16.5,48.9 5.8,72.4 l -12.3,27 c -0.7,1.5 -1.4,3.1 -2,4.6 -0.4,0.9 -0.8,1.9 -1.2,2.8 0,0 0,-0.1 0,-0.1 -0.1,0.2 -0.2,0.5 -0.3,0.7 -0.9,2.1 -1.7,4.2 -2.5,6.3 -0.3,0.8 -0.7,1.7 -1,2.5 -0.7,1.8 -1.4,3.6 -2,5.5 -0.5,1.3 -0.9,2.6 -1.4,3.9 -0.4,1.2 -0.8,2.4 -1.2,3.7 -0.2,0.5 -0.3,0.9 -0.4,1.4 -0.5,1.5 -1,3 -1.4,4.5 -0.4,1.4 -0.8,2.7 -1.2,4.1 -0.5,1.9 -1.1,3.7 -1.6,5.6 -0.3,1.2 -0.6,2.4 -0.9,3.5 -0.4,1.4 -0.7,2.8 -1,4.2 -0.2,0.6 -0.3,1.3 -0.5,2 0,0.1 0,0.1 0,0.2 -0.2,1 -0.5,2 -0.7,3 -0.5,2 -0.9,4.1 -1.3,6.1 -0.1,0.7 -0.3,1.4 -0.4,2.1 -0.1,0.4 -0.2,0.8 -0.3,1.3 -0.6,3.2 -1.2,6.4 -1.6,9.6 0,0.1 0,0.1 0,0.2 -0.4,2.9 -0.8,5.7 -1.1,8.6 -0.2,1.3 -0.4,2.6 -0.5,3.8 -0.5,4.1 -0.8,8.2 -1.1,12.3 -0.5,6.7 -0.7,13.5 -0.7,20.2 h 131.9 v -41.2 z m 133.4,-117.1 h -60 c -15,0 -27.2,-12.2 -27.2,-27.2 v -7.6 c 2.7,-4.2 5.7,-8.1 9.2,-11.6 6,-6 13,-10.8 20.6,-14.2 3.4,14.5 14,48.5 39.8,51.2 0,0 0,0 -0.1,0 -1.6,-1.7 -25.8,-27.7 -16.1,-57.2 0.8,-0.1 1.6,-0.2 2.4,-0.2 l 59.8,-2.6 -1.3,43.2 c -0.5,14.6 -12.5,26.2 -27.1,26.2 z m -68.6,-107.2 -7.5,3.2 11.6,-5 h 4.4 c -2.9,0 -5.8,0.6 -8.5,1.8 z m 298.4,-60.4 v 0 52.6 0 -3.4 -12.9 z m -448.6,15.5 v 0 c -0.3,0.1 -0.6,0.3 -1,0.5 z"
   id="path433"
   style="fill:#f2cccc;fill-opacity:1" />
			</g>

</svg>
